<svg width="162" height="26" viewBox="0 0 162 26" fill="none" xmlns="http://www.w3.org/2000/svg">
<g clip-path="url(#clip0_6231_4221)">
<path d="M149.04 15.8773L152.083 17.7406L151.255 14.2631L153.963 11.9372L150.41 11.6512L149.04 8.35025V15.8773ZM149.04 18.4166L142.692 22.3058L144.418 15.0474L138.77 10.1941L146.184 9.59825L149.04 2.70825L151.897 9.59825L159.312 10.1941L153.663 15.0474L155.389 22.3058L149.04 18.4166Z" fill="#FF5300"/>
</g>
<g clip-path="url(#clip1_6231_4221)">
<path d="M12.9603 18.4166L6.61201 22.3058L8.33785 15.0474L2.68945 10.1941L10.1037 9.59825L12.9603 2.70825L15.8169 9.59825L23.2321 10.1941L17.5827 15.0474L19.3085 22.3058L12.9603 18.4166Z" fill="#FF5300"/>
</g>
<g clip-path="url(#clip2_6231_4221)">
<path d="M46.9798 18.4166L40.6315 22.3058L42.3574 15.0474L36.709 10.1941L44.1232 9.59825L46.9798 2.70825L49.8364 9.59825L57.2517 10.1941L51.6022 15.0474L53.328 22.3058L46.9798 18.4166Z" fill="#FF5300"/>
</g>
<g clip-path="url(#clip3_6231_4221)">
<path d="M80.9993 18.4166L74.6511 22.3058L76.3769 15.0474L70.7285 10.1941L78.1427 9.59825L80.9993 2.70825L83.8559 9.59825L91.2712 10.1941L85.6217 15.0474L87.3476 22.3058L80.9993 18.4166Z" fill="#FF5300"/>
</g>
<g clip-path="url(#clip4_6231_4221)">
<path d="M115.021 18.4166L108.673 22.3058L110.398 15.0474L104.75 10.1941L112.164 9.59825L115.021 2.70825L117.877 9.59825L125.293 10.1941L119.643 15.0474L121.369 22.3058L115.021 18.4166Z" fill="#FF5300"/>
</g>
<defs>
<clipPath id="clip0_6231_4221">
<rect width="25.92" height="26" fill="white" transform="translate(136.08)"/>
</clipPath>
<clipPath id="clip1_6231_4221">
<rect width="25.92" height="26" fill="white"/>
</clipPath>
<clipPath id="clip2_6231_4221">
<rect width="25.92" height="26" fill="white" transform="translate(34.0195)"/>
</clipPath>
<clipPath id="clip3_6231_4221">
<rect width="25.92" height="26" fill="white" transform="translate(68.0391)"/>
</clipPath>
<clipPath id="clip4_6231_4221">
<rect width="25.92" height="26" fill="white" transform="translate(102.061)"/>
</clipPath>
</defs>
</svg>
